PathFileType	4	(X/Y/Z)	C:\Users\u0145647\OneDrive - KU Leuven\KU Leuven\c3d2osim\CP4\T0\Data\Processed\ViconC3D_CP4_2\CP4_T0_07_gapFilled.trc
DataRate	CameraRate	NumFrames	NumMarkers	Units	OrigDataRate	OrigDataStartFrame	OrigNumFrames
100.000000	100.000000	9	47	mm	100.000000	456	728
Frame#	Time	C7			T10			CLAV			STRN			LSHO			RSHO			RBAK			LASI			RASI			LPSI			RPSI			LLAT			RLAT			LF1			LF2			LF3			LTHI			LKNE			LMEK			RF1			RF2			RF3			RTHI			RKNE			RMEK			LT1			LT2			LT3			LTIB			LANK			LMM			RT1			RT2			RT3			RTIB			RANK			RMM			LHEE			LSTL			LLCA			LTOE			LCM5			RHEE			RSTL			RLCA			RTOE			RCM5
		X1	Y1	Z1	X2	Y2	Z2	X3	Y3	Z3	X4	Y4	Z4	X5	Y5	Z5	X6	Y6	Z6	X7	Y7	Z7	X8	Y8	Z8	X9	Y9	Z9	X10	Y10	Z10	X11	Y11	Z11	X12	Y12	Z12	X13	Y13	Z13	X14	Y14	Z14	X15	Y15	Z15	X16	Y16	Z16	X17	Y17	Z17	X18	Y18	Z18	X19	Y19	Z19	X20	Y20	Z20	X21	Y21	Z21	X22	Y22	Z22	X23	Y23	Z23	X24	Y24	Z24	X25	Y25	Z25	X26	Y26	Z26	X27	Y27	Z27	X28	Y28	Z28	X29	Y29	Z29	X30	Y30	Z30	X31	Y31	Z31	X32	Y32	Z32	X33	Y33	Z33	X34	Y34	Z34	X35	Y35	Z35	X36	Y36	Z36	X37	Y37	Z37	X38	Y38	Z38	X39	Y39	Z39	X40	Y40	Z40	X41	Y41	Z41	X42	Y42	Z42	X43	Y43	Z43	X44	Y44	Z44	X45	Y45	Z45	X46	Y46	Z46	X47	Y47	Z47

456	4.55	1600.5	1420.1	-107.48	1575.6	1160.4	-143.47	1714.8	1337.2	-103.64	1746.8	1188.4	-103.13	1683.3	1378.9	-321.89	1629.1	1359.8	86.027	1550.1	1327.8	7.6323	1769.4	906.16	-175.13	1695.1	909.88	11.636	1589	939.19	-183.35	1562.2	950.85	-115.7	1728.7	969.74	-251.83	1620.7	982.02	26.721	1838	684.02	-250.55	1805.8	716.62	-257.48	1811.3	664.96	-262.26	1863.6	605.81	-296.43	1918.2	496.69	-216.06	NaN	NaN	NaN	1600.3	628.85	23.298	1625	659.33	26.537	1563.8	667.61	23.109	1601.7	564.06	56.468	1601	440.29	-24.339	NaN	NaN	NaN	1919.4	314.18	-238.68	1947.5	365.34	-222.37	1900	355.4	-237.63	1996	266.8	-255.65	1974.8	84.255	-208.47	1989.4	97.772	-121.42	1505	322.19	-6.1928	1546.9	346.11	-22.987	1509.4	374.97	-1.5614	1485	250.7	32.26	1355.7	123.84	-18.257	1363.3	138.28	-105.76	1935.7	52.502	-159.07	1997.1	67.057	-125.37	1989.1	58.593	-203.14	2106.6	84.225	-174.86	2094.8	76.712	-218.28	1304.8	145.69	-53.312	1345.4	106.21	-101.3	1349.4	98.683	-23.006	1452.5	46.675	-72.077	1429.9	36.179	-16.865
457	4.56	1612.2	1418.9	-110.09	1588.7	1158.8	-145.02	1726.7	1336.2	-104.95	1759.2	1187.5	-103.71	1697	1377.2	-323.53	1639.2	1359.4	83.91	1561.1	1326.8	4.77	1783.2	904.92	-175.63	1708.4	908.6	11.248	1602.4	938.19	-184.07	1575.6	949.89	-116.26	1742.4	968.23	-252.25	1633.6	980.79	25.952	1850.9	682.57	-250.03	1819	715.06	-257.06	1824.2	663.48	-261.26	1876.2	604.34	-295.26	1930.3	494.35	-215.22	NaN	NaN	NaN	1611	627.82	23.554	1636	658.26	26.68	1575.5	666.32	22.904	1612	562.98	56.86	1609.1	439	-23.688	NaN	NaN	NaN	1927.6	311.69	-236.39	1957.1	362.03	-220.3	1909.3	353.52	-235.7	2002.3	262.73	-253.87	1976.6	81.404	-206.85	1991.1	93.449	-119.47	1511.1	322.45	-5.6543	1553.4	345.67	-22.252	1516.4	375.3	-1.237	1489.9	251.47	32.806	1358.7	126.55	-17.743	1366.8	140.72	-105.21	1936.5	51.401	-157.32	1998.5	63.577	-123.67	1990.1	55.335	-201.41	2108	77.241	-172.16	2096.3	70.234	-215.5	1308.4	149.19	-52.727	1348	109.14	-100.65	1351.8	101.48	-22.382	1453.4	46.63	-71.821	1430.3	36.429	-16.805
458	4.57	1623.7	1417.8	-112.65	1602.2	1157.4	-146.23	1738.7	1335.5	-106.34	1771.9	1187	-104.45	1710.8	1375.7	-325.17	1649.2	1359.1	81.894	1572.2	1325.8	1.7409	1796.2	903.65	-176.31	1721.9	907.26	10.569	1615.3	937.85	-185.19	1589.1	948.94	-117.06	1756.4	966.79	-252.72	1646.9	979.57	25.521	1863.8	680.58	-249.61	1832.2	713.26	-256.93	1837	661.77	-260.63	1888	601.58	-294.76	1942.6	492.62	-214.52	NaN	NaN	NaN	1622	626.81	23.739	1647.2	656.83	26.302	1586.3	666.09	23.419	1622.9	561.82	57.336	1617.4	437.71	-23.184	NaN	NaN	NaN	1936.2	310.77	-233.01	1967.6	360.53	-218.86	1918.7	352.7	-232.94	2008.2	260.46	-253	1979.6	81.902	-206.05	1994.1	92.465	-118.55	1517.5	322.95	-5.0187	1560.2	345.5	-21.372	1523.7	375.59	-0.66823	1494.9	252.38	33.648	1362.1	129.33	-16.861	1370.5	143.41	-104.23	1937.7	52.756	-157.36	2000	62.691	-122.69	1991.7	55.095	-200.79	2110.4	70.176	-169.49	2099	63.847	-213.21	1312	153.53	-51.972	1351.3	112.34	-99.962	1354.7	104.46	-21.659	1454.3	46.64	-71.728	1431.2	36.908	-16.661
459	4.58	1635.2	1417.2	-115.35	1615.6	1156.2	-147.37	1750.6	1335.2	-107.65	1784.8	1187	-105.18	1724.5	1374.6	-326.81	1659.5	1358.8	79.776	1583.4	1324.7	-1.2545	1809.4	902.6	-177.29	1735.5	906.21	9.5661	1628.4	938.03	-186.13	1602.4	948.75	-117.44	1770.4	965.57	-252.91	1660.9	978.76	25.13	1877	678.95	-249.91	1845.8	711.85	-257.71	1850	660.11	-260.94	1900.3	598.94	-294.55	1957	493.19	-213.63	NaN	NaN	NaN	1633.2	625.87	23.915	1658.9	655.87	26.171	1598.3	665.49	23.858	1633.8	561.11	57.462	1626.2	437.02	-22.851	NaN	NaN	NaN	1945.7	313.92	-230.94	1980.3	362.27	-217.73	1930.1	355.79	-229.92	2017	260.76	-252.12	1982.6	82.155	-205.61	1995.7	92.475	-117.77	1524.3	323.78	-4.3183	1567.4	345.49	-20.494	1531.2	376.32	-0.045934	1500.5	253.74	34.432	1365.9	132.65	-15.775	1374.9	146.54	-103.16	1939.3	53.933	-158.02	2000.8	62.029	-121.99	1994.3	54.951	-200.21	2112.5	68.065	-166.54	2101.8	62.386	-210.44	1316.6	157.88	-50.898	1354.9	115.92	-98.741	1358	107.89	-20.581	1455.4	46.716	-71.563	1432.2	37.411	-16.28
460	4.59	1646.9	1417.2	-117.75	1629	1155.4	-148.3	1762.5	1335.7	-108.98	1797.6	1187.7	-105.97	1737.8	1373.4	-328.37	1669.7	1359.2	78.165	1594.6	1324	-3.8894	1822.5	901.94	-178.56	1749.1	905.53	8.2955	1641.5	938.6	-186.79	1615.5	948.72	-117.56	1784.3	964.64	-253.44	1675.2	978.46	24.985	1890.7	678.36	-250.54	1859.7	711.37	-259.04	1863.6	659.57	-261.27	1913.4	595.5	-293.77	1972.6	495.95	-211.87	NaN	NaN	NaN	1645	625.21	23.879	1670.8	655	25.569	1609.8	665.11	24.57	1644.9	560.26	57.643	1635.3	436.49	-21.972	NaN	NaN	NaN	1957.1	317.71	-232.34	1991.7	364.77	-216.34	1942	359.67	-230.3	2030.1	262.6	-248.54	1986.4	82.565	-205.21	1998	92.636	-117.04	1531.7	324.89	-3.5357	1575.3	345.88	-19.635	1539.5	377.42	0.53163	1506.7	255.72	35.651	1370.4	135.79	-14.505	1379.6	149.8	-101.78	1941.8	55.053	-158.76	2002.8	61.739	-121.27	1997.4	55.3	-199.82	2115	66.741	-163.98	2105.1	61.117	-208.05	1321.5	162.52	-49.542	1359	119.68	-97.28	1361.8	111.3	-19.355	1456.6	46.858	-71.393	1433.4	37.777	-15.965
461	4.6	1658.9	1417.6	-119.97	1642	1155.3	-148.85	1774.5	1336.6	-110.25	1810.4	1188.7	-106.83	1750.9	1372.8	-330.01	1680	1359.7	76.443	1606	1323.7	-6.4486	1836	902.26	-179.74	1762.5	905.01	6.8413	1654.7	939.11	-187.02	1628.6	948.72	-117.7	1797.5	964.06	-254.05	1689.6	978.35	24.994	1905.2	679.24	-251.25	1873.9	711.96	-260.07	1878.3	660.48	-261.52	1928.2	597.69	-293.3	1987.4	498.31	-209.71	NaN	NaN	NaN	1656.7	624.79	24.058	1682.7	654.4	25.14	1621.7	664.79	24.857	1657	560.03	58.345	1645.1	435.95	-21.463	NaN	NaN	NaN	1968.8	319.41	-232.92	2003.5	365.66	-214.68	1954.6	362.52	-231.62	2039.2	262.85	-247.25	1990.9	82.904	-204.89	2001.7	92.238	-116.6	1539.7	326.19	-2.6017	1583.7	346.33	-18.619	1548.4	378.77	1.2017	1513.4	257.72	36.799	1375.1	139.23	-13.109	1384.8	153.19	-100.1	1944.7	56.29	-159.12	2005.5	61.084	-120.86	2000.9	55.151	-199.48	2118.4	63.202	-162.17	2108.7	57.916	-206.25	1327	167.36	-48.19	1363.5	123.64	-95.727	1365.9	115.15	-17.836	1458	47.022	-71.247	1434.5	38.469	-15.749
462	4.61	1671	1418	-121.82	1654.8	1155.5	-149.53	1786.4	1337.6	-111.49	1823.3	1189.9	-107.84	1763.9	1372.7	-331.49	1690.4	1360.6	74.821	1617.7	1323.8	-9.3625	1849.8	903.48	-180.93	1776	904.63	5.2862	1667.7	939.52	-186.8	1641.5	948.65	-117.72	1810.3	964.33	-254.86	1704	978.08	25	1919.2	681.19	-251.59	1887.9	713.55	-260.5	1893	662.77	-262.23	1945.4	601.31	-293.36	2000.3	498.79	-208.65	NaN	NaN	NaN	1668.5	624.55	24.382	1694.7	654.35	25.217	1633.9	664.59	24.931	1669.5	559.95	58.883	1655.3	435.64	-20.015	NaN	NaN	NaN	1979.7	319.03	-232.95	2014.8	365.02	-213.52	1967	362.36	-232.56	2048.3	260.31	-245.54	1995.4	82.273	-205.24	2005.1	91.238	-117.04	1548.1	327.68	-1.4313	1592.5	346.7	-17.789	1557.8	380.13	1.9809	1520.3	260.26	38.213	1380.1	143.03	-11.707	1390.8	156.71	-98.622	1947.6	57.506	-160.05	2007.9	60.102	-121.05	2004	54.288	-199.85	2121.4	59.063	-160.9	2112	53.939	-204.97	1333	172.6	-46.735	1368.7	127.86	-94.221	1370.6	118.88	-16.738	1459.3	47.33	-70.504	1435.8	38.986	-15.399
463	4.62	1682.4	1418.6	-124.42	1667.8	1155.8	-150.26	1798.5	1338.6	-112.64	1836.1	1191	-108.75	1776.8	1372.9	-332.82	1701.2	1361.7	73.03	1629.4	1324.5	-11.421	1863.9	905.17	-181.98	1789.2	904.24	3.8515	1681	940.04	-186.71	1654.5	948.75	-117.83	1823.1	965.88	-255.48	1718.2	978.04	25.009	1933.3	683.01	-251.81	1901.9	715.71	-261.16	1907.7	665.09	-263.26	1960.7	604.57	-293.79	2012	497.82	-208.5	NaN	NaN	NaN	1680.8	624.23	24.552	1706.9	654.07	25.24	1646.1	664.3	25.043	1681.2	559.68	59.267	1666.1	435.25	-18.664	NaN	NaN	NaN	1990	317.66	-233.21	2025.6	362.78	-212.74	1978.4	361.08	-233.44	2058.8	257.2	-243.77	1998.9	81.483	-205.97	2008.3	90.612	-117.49	1556.9	329.09	-0.24106	1601.6	347.17	-16.005	1567.7	381.25	2.8935	1527.4	262.49	39.666	1386.1	147.1	-10.26	1397.3	160.73	-97.051	1949.6	58.514	-161.33	2009.8	59.089	-121.64	2006.4	53.162	-200.25	2123.9	55.78	-160.16	2114.3	50.197	-204.29	1339.7	178.09	-45.483	1374.5	132.64	-92.755	1375.6	123.31	-15.302	1460.9	48.087	-70.13	1437.5	40.065	-15.22
464	4.63	1694.9	1418.9	-125.42	1680.8	1156.2	-150.73	1810.6	1339.6	-113.76	1849	1192.2	-109.56	1789.3	1373.4	-333.87	1712.6	1362.9	71.176	1641.5	1325	-13.147	1877.9	907.01	-182.69	1802.4	903.9	2.509	1694.4	940.84	-187.02	1667.5	949.16	-118.37	1836.3	968.21	-256.04	1732.1	977.95	24.889	1946.8	684.53	-252.7	1915.5	717.24	-261.95	1920.7	666.2	-263.33	1973.3	605.13	-294.49	2023.3	496.17	-208.51	NaN	NaN	NaN	1693.1	623.91	24.749	1719.2	653.5	24.943	1658.4	664.03	24.975	1692.8	559.54	60.275	1677.6	434.7	-17.076	NaN	NaN	NaN	1999.5	316.07	-233.92	2035.2	360.3	-212.11	1989.1	359.86	-234.3	2067.2	254.77	-241.75	2000.7	80.818	-206.58	2009.5	89.838	-117.93	1566.5	330.83	1.1593	1611.7	347.7	-14.174	1578.1	382.8	4.1607	1534.9	265.46	41.446	1392.5	151.73	-9.0025	1405	164.88	-95.484	1950.8	58.831	-161.76	2010.4	58.593	-122	2007.5	52.555	-201.02	2125.6	54.558	-160.72	2115.6	47.83	-204.65	1347.3	184.37	-44.758	1381.3	137.95	-91.412	1381.2	128.36	-14.012	1463.2	49.027	-69.383	1439.3	41.581	-14.75
